<svg width="22" height="21" viewBox="0 0 22 21" fill="none" xmlns="http://www.w3.org/2000/svg">
<path d="M13.4282 2.9375C14.7744 2.9375 15.8657 1.84619 15.8657 0.5H16.9907C16.9907 1.84619 18.082 2.9375 19.4282 2.9375V4.0625C18.082 4.0625 16.9907 5.15381 16.9907 6.5H15.8657C15.8657 5.15381 14.7744 4.0625 13.4282 4.0625V2.9375ZM0.428223 9.5C3.74193 9.5 6.42822 6.81371 6.42822 3.5H8.42822C8.42822 6.81371 11.1145 9.5 14.4282 9.5V11.5C11.1145 11.5 8.42822 14.1863 8.42822 17.5H6.42822C6.42822 14.1863 3.74193 11.5 0.428223 11.5V9.5ZM16.6782 12.5C16.6782 14.2949 15.2231 15.75 13.4282 15.75V17.25C15.2231 17.25 16.6782 18.7051 16.6782 20.5H18.1782C18.1782 18.7051 19.6333 17.25 21.4282 17.25V15.75C19.6333 15.75 18.1782 14.2949 18.1782 12.5H16.6782Z" fill="black"/>
</svg>
