<svg width="20" height="20" viewBox="0 0 20 20" fill="none" xmlns="http://www.w3.org/2000/svg">
<path d="M9.19174 0.240723C13.7917 0.240723 17.525 3.97406 17.525 8.57406C17.525 13.1741 13.7917 16.9074 9.19174 16.9074C4.59173 16.9074 0.858398 13.1741 0.858398 8.57406C0.858398 3.97406 4.59173 0.240723 9.19174 0.240723ZM9.19174 15.0555C12.7722 15.0555 15.6732 12.1547 15.6732 8.57406C15.6732 4.99257 12.7722 2.09257 9.19174 2.09257C5.61025 2.09257 2.71025 4.99257 2.71025 8.57406C2.71025 12.1547 5.61025 15.0555 9.19174 15.0555ZM17.0482 15.1213L19.6677 17.7398L18.3575 19.05L15.7389 16.4306L17.0482 15.1213Z" fill="black"/>
</svg>
