<svg width="43" height="21" viewBox="0 0 43 21" fill="none" xmlns="http://www.w3.org/2000/svg">
<path d="M0.1875 10.5C0.1875 4.97715 4.66465 0.5 10.1875 0.5H32.6875C38.2103 0.5 42.6875 4.97715 42.6875 10.5C42.6875 16.0228 38.2103 20.5 32.6875 20.5H10.1875C4.66465 20.5 0.1875 16.0228 0.1875 10.5Z" fill="#0072BB"/>
<path d="M10.3063 11.1688V15.5H9.2V8.3H10.2687V9.425H10.3625C10.5313 9.05938 10.7875 8.76563 11.1313 8.54375C11.475 8.31875 11.9188 8.20625 12.4625 8.20625C12.95 8.20625 13.3766 8.30625 13.7422 8.50625C14.1078 8.70313 14.3922 9.00313 14.5953 9.40625C14.7984 9.80625 14.9 10.3125 14.9 10.925V15.5H13.7938V11C13.7938 10.4344 13.6469 9.99375 13.3531 9.67812C13.0594 9.35937 12.6563 9.2 12.1437 9.2C11.7906 9.2 11.475 9.27656 11.1969 9.42969C10.9219 9.58281 10.7047 9.80625 10.5453 10.1C10.3859 10.3937 10.3063 10.75 10.3063 11.1688ZM19.9402 15.65C19.2465 15.65 18.648 15.4969 18.1449 15.1906C17.6449 14.8813 17.259 14.45 16.9871 13.8969C16.7184 13.3406 16.584 12.6938 16.584 11.9563C16.584 11.2187 16.7184 10.5687 16.9871 10.0063C17.259 9.44063 17.6371 9 18.1215 8.68437C18.609 8.36563 19.1777 8.20625 19.8277 8.20625C20.2027 8.20625 20.573 8.26875 20.9387 8.39375C21.3043 8.51875 21.6371 8.72187 21.9371 9.00313C22.2371 9.28125 22.4762 9.65 22.6543 10.1094C22.8324 10.5687 22.9215 11.1344 22.9215 11.8062V12.275H17.3715V11.3187H21.7965C21.7965 10.9125 21.7152 10.55 21.5527 10.2312C21.3934 9.9125 21.1652 9.66094 20.8684 9.47656C20.5746 9.29219 20.2277 9.2 19.8277 9.2C19.3871 9.2 19.0059 9.30937 18.684 9.52812C18.3652 9.74375 18.1199 10.025 17.948 10.3719C17.7762 10.7187 17.6902 11.0906 17.6902 11.4875V12.125C17.6902 12.6688 17.784 13.1297 17.9715 13.5078C18.1621 13.8828 18.4262 14.1687 18.7637 14.3656C19.1012 14.5594 19.4934 14.6563 19.9402 14.6563C20.2309 14.6563 20.4934 14.6156 20.7277 14.5344C20.9652 14.45 21.1699 14.325 21.3418 14.1594C21.5137 13.9906 21.6465 13.7812 21.7402 13.5312L22.809 13.8313C22.6965 14.1938 22.5074 14.5125 22.2418 14.7875C21.9762 15.0594 21.648 15.2719 21.2574 15.425C20.8668 15.575 20.4277 15.65 19.9402 15.65ZM26.2355 15.5L24.0418 8.3H25.2043L26.7605 13.8125H26.8355L28.373 8.3H29.5543L31.073 13.7937H31.148L32.7043 8.3H33.8668L31.673 15.5H30.5855L29.0105 9.96875H28.898L27.323 15.5H26.2355Z" fill="#FAFAFF"/>
</svg>
