<svg width="135" height="25" viewBox="0 0 135 25" fill="none" xmlns="http://www.w3.org/2000/svg">
<g clip-path="url(#clip0_1_2529)">
<path d="M3.24998 21.0256C1.08333 18.6991 0 15.8624 0 12.484C0 9.07376 1.08333 6.23717 3.24998 3.97427C5.44849 1.64763 8.18867 0.500244 11.4386 0.500244C12.8087 0.500244 14.9754 0.500244 14.9754 0.500244C14.9754 0.500244 13.1274 5.34475 11.3749 5.34475C9.46318 5.34475 7.87006 6.01406 6.56369 7.38454C5.32104 8.75504 4.65193 10.4442 4.65193 12.484C4.65193 14.5238 5.28919 16.213 6.56369 17.5835C7.87006 18.954 9.46318 19.6233 11.3749 19.6233C12.968 19.6233 13.9239 24.4679 13.9239 24.4679C13.9239 24.4679 12.9999 24.4679 11.4068 24.4679C8.18867 24.4997 5.44849 23.3523 3.24998 21.0256Z" fill="#0072BB"/>
<path d="M6.30882 21.0256C4.14218 18.6991 3.05884 15.8624 3.05884 12.484C3.05884 9.07376 4.14218 6.23717 6.30882 3.97427C8.50733 1.64763 11.2475 0.500244 14.4975 0.500244C15.8676 0.500244 18.0342 0.500244 18.0342 0.500244C18.0342 0.500244 16.1862 5.34475 14.4338 5.34475C12.522 5.34475 10.9289 6.01406 9.62252 7.38454C8.37988 8.75504 7.71077 10.4442 7.71077 12.484C7.71077 14.5238 8.34803 16.213 9.62252 17.5835C10.9289 18.954 12.522 19.6233 14.4338 19.6233C16.0269 19.6233 16.9828 24.4679 16.9828 24.4679C16.9828 24.4679 16.0588 24.4679 14.4656 24.4679C11.2475 24.4997 8.50733 23.3523 6.30882 21.0256Z" fill="#7DC24B"/>
<path d="M9.36766 21.0256C7.201 18.6991 6.11768 15.8624 6.11768 12.484C6.11768 9.07376 7.201 6.23717 9.36766 3.9424C11.598 1.64763 14.3063 0.500244 17.5563 0.500244C18.9263 0.500244 21.093 0.500244 21.093 0.500244C21.093 0.500244 19.2769 5.34475 17.5245 5.34475C15.6127 5.34475 14.0196 6.01406 12.7132 7.38454C11.4706 8.75504 10.8015 10.4442 10.8015 12.484C10.8015 14.5238 11.4387 16.213 12.7132 17.5835C14.0196 18.9858 15.6127 19.6553 17.5245 19.6553C19.1176 19.6553 20.0734 24.4997 20.0734 24.4997C20.0734 24.4997 19.1494 24.4997 17.5563 24.4997C14.3063 24.4997 11.598 23.3523 9.36766 21.0256Z" fill="#FED035"/>
<path d="M12.4267 21.0256C10.2601 18.6991 9.17676 15.8624 9.17676 12.484C9.17676 9.07376 10.2601 6.23717 12.4267 3.9424C14.6571 1.64763 17.3654 0.500244 20.6153 0.500244C21.9855 0.500244 24.1522 0.500244 24.1522 0.500244C24.1522 0.500244 22.3042 5.34475 20.5517 5.34475C18.6399 5.34475 17.0468 6.01406 15.7404 7.38454C14.4978 8.75504 13.8287 10.4442 13.8287 12.484C13.8287 14.5238 14.4659 16.213 15.7404 17.5835C17.0468 18.954 18.6399 19.6233 20.5517 19.6233C22.1448 19.6233 23.1007 24.4679 23.1007 24.4679C23.1007 24.4679 22.1768 24.4679 20.5835 24.4679C17.3654 24.4997 14.6571 23.3523 12.4267 21.0256Z" fill="#FF4C3D"/>
<path d="M15.6448 21.0256C13.4781 18.6991 12.3948 15.8624 12.3948 12.484C12.3948 9.07376 13.4781 6.23717 15.6448 3.9424C17.8433 1.64763 20.5834 0.500244 23.8334 0.500244C28.0393 0.500244 31.7672 2.79501 33.4879 6.39653L29.473 8.85065C28.4854 6.6515 26.3824 5.34475 23.8015 5.34475C21.8898 5.34475 20.2967 6.01406 18.9904 7.38454C17.7477 8.75504 17.0786 10.4442 17.0786 12.484C17.0786 14.5238 17.7158 16.213 18.9904 17.5835C20.2967 18.954 21.8898 19.6233 23.8015 19.6233C26.3506 19.6233 28.5172 18.2528 29.5687 16.1174L33.5833 18.5397C31.7353 22.2048 28.0393 24.4997 23.8334 24.4997C20.5834 24.4997 17.8433 23.3523 15.6448 21.0256Z" fill="black"/>
<path d="M38.746 21.0256C36.5475 18.6991 35.4004 15.8624 35.4004 12.484C35.4004 9.10563 36.5156 6.26904 38.746 3.9424C40.9444 1.64763 43.6846 0.500244 46.839 0.500244C50.0571 0.500244 52.7336 1.64763 54.9321 3.97427C57.1306 6.30091 58.2777 9.1375 58.2777 12.5159C58.2777 15.8943 57.1624 18.7309 54.9321 21.0576C52.7336 23.3843 50.0253 24.5315 46.839 24.5315C43.6846 24.4997 40.9444 23.3523 38.746 21.0256ZM46.839 19.7189C48.7508 19.7189 50.3439 19.0496 51.6502 17.6791C52.9567 16.3086 53.594 14.5876 53.594 12.5159C53.594 10.4761 52.9567 8.72316 51.6502 7.35267C50.3439 5.98219 48.7508 5.28101 46.839 5.28101C44.9273 5.28101 43.3342 5.95032 42.0279 7.3208C40.7214 8.69129 40.0841 10.4124 40.0841 12.484C40.0841 14.5238 40.7214 16.2768 42.0279 17.6473C43.3342 19.0178 44.9273 19.7189 46.839 19.7189Z" fill="black"/>
<path d="M76.3445 1.10583H81.4423L72.9989 23.9259H67.5821L59.1387 1.10583H64.2366L70.2906 18.4441L76.3445 1.10583Z" fill="black"/>
<path d="M87.2102 14.5876C87.9111 18.0616 90.5558 19.974 94.1562 19.974C96.6414 19.974 98.4894 19.0178 99.7321 17.1373L103.587 19.4958C101.453 22.8105 98.2983 24.4679 94.0924 24.4679C90.5876 24.4679 87.7198 23.3204 85.5533 21.0894C83.3866 18.7947 82.3032 15.9262 82.3032 12.4522C82.3032 9.04188 83.3866 6.2053 85.5213 3.91053C87.6562 1.64763 90.4283 0.500244 93.7739 0.500244C96.9282 0.500244 99.541 1.6795 101.58 4.00615C103.619 6.33278 104.671 9.20125 104.671 12.5478C104.671 13.0577 104.639 13.727 104.511 14.5876H87.2102ZM99.9234 10.5717C99.2861 6.87461 96.8007 4.96229 93.7419 4.96229C90.2689 4.96229 87.8473 7.09771 87.2102 10.5717H99.9234Z" fill="black"/>
<path d="M113.434 4.93035C114.613 2.09377 116.843 0.691406 120.093 0.691406V6.014C118.309 5.88651 116.748 6.33272 115.409 7.38448C114.071 8.37251 113.402 10.0617 113.402 12.3883V23.8941H108.718V1.10574H113.434V4.93035Z" fill="black"/>
<path d="M128.251 4.93035C129.43 2.09377 131.66 0.691406 134.91 0.691406V6.014C133.126 5.88651 131.564 6.33272 130.226 7.38448C128.888 8.37251 128.219 10.0617 128.219 12.3883V23.8941H123.535V1.10574H128.219V4.93035H128.251Z" fill="black"/>
</g>
<defs>
<clipPath id="clip0_1_2529">
<rect width="134.91" height="24" fill="white" transform="translate(0 0.5)"/>
</clipPath>
</defs>
</svg>
